<svg width="16" height="16"  xmlns="http://www.w3.org/2000/svg" viewBox="0 0 16 16" fill="none" id="web"><circle cx="8" cy="8" r="6.5" stroke="white"></circle><path d="M2 8L14 8" stroke="white" stroke-linecap="round" stroke-linejoin="round"></path><path d="M10.5 8C10.5 9.8819 10.1721 11.5619 9.66175 12.7528C9.40618 13.3491 9.11471 13.7997 8.81652 14.094C8.52048 14.3862 8.24513 14.5 8 14.5C7.75487 14.5 7.47952 14.3862 7.18348 14.094C6.88529 13.7997 6.59382 13.3491 6.33825 12.7528C5.82788 11.5619 5.5 9.8819 5.5 8C5.5 6.1181 5.82788 4.43808 6.33825 3.24721C6.59382 2.65089 6.88529 2.20026 7.18348 1.90597C7.47952 1.6138 7.75487 1.5 8 1.5C8.24513 1.5 8.52048 1.6138 8.81652 1.90597C9.11471 2.20026 9.40618 2.65089 9.66175 3.24721C10.1721 4.43808 10.5 6.1181 10.5 8Z" stroke="white"></path></svg>