<svg xmlns="http://www.w3.org/2000/svg" viewBox="0 0 30 20" fill="none" id="camera" width="24" height="24"><path d="M0 4C0 1.79086 1.85261 0 4.13793 0H14.4828C16.7681 0 18.6207 1.79086 18.6207 4V16C18.6207 18.2091 16.7681 20 14.4828 20H4.13793C1.85261 20 0 18.2091 0 16V4Z" fill="currentColor"></path><path d="M20.4996 14.4162C20.4996 14.8422 20.7696 15.2215 21.1722 15.361L28.5816 17.9285C28.9003 18.0517 29.2615 18.0141 29.5458 17.8281C29.83 17.642 30.0003 17.3318 30.0003 17V3C30.0003 2.66818 29.83 2.35797 29.5458 2.17194C29.2615 1.98591 28.9003 1.94829 28.5816 2.07153L21.1722 4.63897C20.7696 4.77848 20.4996 5.15777 20.4996 5.58385V14.4162Z" fill="currentColor"></path></svg>