<svg xmlns="http://www.w3.org/2000/svg" viewBox="0 0 32 32" fill="none" id="events" width="24" height="24"><path d="M31.9991 9.16364C31.9991 14.2246 27.8964 18.3273 22.8355 18.3273C17.7746 18.3273 13.6719 14.2246 13.6719 9.16364C13.6719 4.1027 17.7746 0 22.8355 0C27.8964 0 31.9991 4.1027 31.9991 9.16364Z" fill="currentColor"></path><path d="M11.9848 9.0502C12.1608 9.31305 12.0904 9.66877 11.8275 9.84474C11.0154 10.3885 10.316 11.0879 9.77223 11.9001C9.59626 12.1629 9.24054 12.2333 8.97769 12.0574C8.71485 11.8814 8.64443 11.5257 8.82039 11.2628C9.44744 10.3262 10.2537 9.51995 11.1903 8.8929C11.4532 8.71694 11.8089 8.78736 11.9848 9.0502Z" fill="currentColor"></path><path d="M8.20954 13.9098C8.51984 13.9712 8.72162 14.2725 8.66023 14.5828C8.56731 15.0525 8.5185 15.5385 8.5185 16.0365C8.5185 16.5344 8.56731 17.0205 8.66023 17.4902C8.72162 17.8005 8.51984 18.1018 8.20954 18.1631C7.89925 18.2245 7.59794 18.0228 7.53655 17.7125C7.42923 17.1699 7.37305 16.6095 7.37305 16.0365C7.37305 15.4635 7.42923 14.903 7.53655 14.3605C7.59794 14.0502 7.89925 13.8484 8.20954 13.9098Z" fill="currentColor"></path><path d="M8.97769 20.0156C9.24054 19.8396 9.59626 19.91 9.77223 20.1729C10.316 20.9851 11.0154 21.6844 11.8275 22.2282C12.0904 22.4042 12.1608 22.7599 11.9848 23.0227C11.8089 23.2856 11.4532 23.356 11.1903 23.18C10.2537 22.553 9.44744 21.7467 8.82039 20.8101C8.64443 20.5473 8.71485 20.1915 8.97769 20.0156Z" fill="currentColor"></path><path d="M22.9502 20.0156C23.2131 20.1915 23.2835 20.5473 23.1075 20.8101C22.4805 21.7467 21.6742 22.553 20.7376 23.18C20.4748 23.356 20.119 23.2856 19.9431 23.0227C19.7671 22.7599 19.8375 22.4042 20.1004 22.2282C20.9125 21.6844 21.6119 20.9851 22.1557 20.1729C22.3316 19.91 22.6874 19.8396 22.9502 20.0156Z" fill="currentColor"></path><path d="M18.0906 23.7909C18.152 24.1012 17.9502 24.4025 17.6399 24.4639C17.0974 24.5712 16.537 24.6274 15.964 24.6274C15.3909 24.6274 14.8305 24.5712 14.288 24.4639C13.9777 24.4025 13.7759 24.1012 13.8373 23.7909C13.8987 23.4806 14.2 23.2788 14.5103 23.3402C14.98 23.4331 15.466 23.4819 15.964 23.4819C16.4619 23.4819 16.948 23.4331 17.4177 23.3402C17.7279 23.2788 18.0293 23.4806 18.0906 23.7909Z" fill="currentColor"></path><path d="M5.1118 15.9229C5.28777 16.1857 5.21734 16.5414 4.9545 16.7174C4.14232 17.2612 3.44293 17.9605 2.89918 18.7727C2.72322 19.0356 2.36749 19.106 2.10465 18.93C1.8418 18.7541 1.77138 18.3983 1.94735 18.1355C2.57439 17.1989 3.38066 16.3926 4.31726 15.7656C4.5801 15.5896 4.93583 15.66 5.1118 15.9229Z" fill="currentColor"></path><path d="M1.33649 20.7824C1.64679 20.8438 1.84857 21.1451 1.78718 21.4554C1.69426 21.9251 1.64545 22.4111 1.64545 22.9091C1.64545 23.4071 1.69426 23.8931 1.78718 24.3628C1.84857 24.6731 1.64679 24.9744 1.33649 25.0358C1.0262 25.0972 0.724893 24.8954 0.663507 24.5851C0.556181 24.0426 0.5 23.4821 0.5 22.9091C0.5 22.3361 0.556181 21.7757 0.663507 21.2331C0.724893 20.9228 1.0262 20.7211 1.33649 20.7824Z" fill="currentColor"></path><path d="M2.10465 26.8882C2.36749 26.7123 2.72322 26.7827 2.89918 27.0455C3.44293 27.8577 4.14232 28.5571 4.9545 29.1009C5.21734 29.2768 5.28777 29.6326 5.1118 29.8954C4.93583 30.1582 4.5801 30.2287 4.31726 30.0527C3.38066 29.4257 2.57439 28.6194 1.94735 27.6828C1.77138 27.4199 1.8418 27.0642 2.10465 26.8882Z" fill="currentColor"></path><path d="M16.0772 26.8882C16.34 27.0642 16.4104 27.4199 16.2345 27.6828C15.6074 28.6194 14.8012 29.4257 13.8646 30.0527C13.6017 30.2287 13.246 30.1582 13.07 29.8954C12.894 29.6326 12.9645 29.2768 13.2273 29.1009C14.0395 28.5571 14.7389 27.8577 15.2826 27.0455C15.4586 26.7827 15.8143 26.7123 16.0772 26.8882Z" fill="currentColor"></path><path d="M11.2176 30.6635C11.279 30.9738 11.0772 31.2751 10.7669 31.3365C10.2244 31.4439 9.66392 31.5 9.09091 31.5C8.5179 31.5 7.95744 31.4439 7.41492 31.3365C7.10462 31.2751 6.90284 30.9738 6.96423 30.6635C7.02561 30.3533 7.32692 30.1515 7.63721 30.2129C8.10692 30.3058 8.59293 30.3546 9.09091 30.3546C9.58889 30.3546 10.0749 30.3058 10.5446 30.2129C10.8549 30.1515 11.1562 30.3533 11.2176 30.6635Z" fill="currentColor"></path></svg>