<svg viewBox="0 0 32 32" fill="none" xmlns="http://www.w3.org/2000/svg" id="folders" width="24" height="24"><path d="M2.59493 6C2.38788 6 2.24407 5.79482 2.34004 5.61137C2.84107 4.65361 3.8442 4 5 4H11.2984C11.9797 4 12.6406 4.23184 13.1725 4.65739L14.183 5.46574C14.4044 5.64289 14.2791 6 13.9955 6H2.59493Z" fill="currentColor"></path><path d="M2.5 8C2.22386 8 2 8.22386 2 8.5V21C2 23.7614 4.23858 26 7 26H25C27.7614 26 30 23.7614 30 21V13C30 10.2386 27.7614 8 25 8H2.5Z" fill="currentColor"></path></svg>
