<svg width="40" height="40" xmlns="http://www.w3.org/2000/svg" viewBox="0 0 40 40" fill="none" id="code2" class="InteractiveSection_icon__1suOl"><path fill-rule="evenodd" clip-rule="evenodd" d="M21.7735 12.0192C22.2049 12.1151 22.4768 12.5424 22.3809 12.9737L19.1809 27.3737C19.0851 27.805 18.6578 28.077 18.2265 27.9811C17.7951 27.8853 17.5232 27.4579 17.6191 27.0266L20.8191 12.6266C20.9149 12.1953 21.3422 11.9234 21.7735 12.0192ZM14.1657 14.6345C14.4781 14.9469 14.4781 15.4534 14.1657 15.7659L9.93137 20.0002L14.1657 24.2345C14.4781 24.5469 14.4781 25.0534 14.1657 25.3659C13.8533 25.6783 13.3467 25.6783 13.0343 25.3659L8.23431 20.5659C7.9219 20.2534 7.9219 19.7469 8.23431 19.4345L13.0343 14.6345C13.3467 14.3221 13.8533 14.3221 14.1657 14.6345ZM25.8343 14.6345C26.1467 14.3221 26.6533 14.3221 26.9657 14.6345L31.7657 19.4345C31.9157 19.5845 32 19.788 32 20.0002C32 20.2123 31.9157 20.4158 31.7657 20.5659L26.9657 25.3659C26.6533 25.6783 26.1467 25.6783 25.8343 25.3659C25.5219 25.0534 25.5219 24.5469 25.8343 24.2345L30.0686 20.0002L25.8343 15.7659C25.5219 15.4534 25.5219 14.9469 25.8343 14.6345Z" fill="#915EFF"></path></svg>