<svg xmlns="http://www.w3.org/2000/svg" viewBox="0 0 28 28" fill="none" id="image" width="24" height="24"><path fill-rule="evenodd" clip-rule="evenodd" d="M8 0C3.58172 0 0 3.58172 0 8V18.3787C0 18.8241 0.53857 19.0472 0.853553 18.7322L8.29289 11.2929C8.48985 11.0959 8.76004 10.99 9.03838 11.0007C9.31672 11.0114 9.57798 11.1377 9.75926 11.3492L15.518 18.0678L18.2929 15.2929C18.6834 14.9024 19.3166 14.9024 19.7071 15.2929L26.8837 22.4695C27.1368 22.7226 27.5647 22.6344 27.667 22.2913C27.8837 21.5654 28 20.7963 28 20V8C28 3.58172 24.4183 0 20 0H8ZM19 12C20.6569 12 22 10.6569 22 9C22 7.34315 20.6569 6 19 6C17.3431 6 16 7.34315 16 9C16 10.6569 17.3431 12 19 12Z" fill="currentColor"></path><path d="M25.8349 25.4731C26.1759 25.1096 26.1321 24.5464 25.7797 24.1939L19 17.4142L13.2071 23.2071C12.8166 23.5976 12.1834 23.5976 11.7929 23.2071C11.4024 22.8166 11.4024 22.1834 11.7929 21.7929L14.0996 19.4862L8.94352 13.4707L0.697605 21.7166C0.443259 21.971 0.34043 22.3442 0.461043 22.6831C1.5639 25.7817 4.52289 28 8 28H20C22.3012 28 24.3754 27.0284 25.8349 25.4731Z" fill="currentColor"></path></svg>