<svg xmlns="http://www.w3.org/2000/svg" viewBox="0 0 28 28" fill="none" id="pen" width="24" height="24"><path d="M0.0238839 2.30474C-0.0322304 1.94 0.393469 1.8078 0.654408 2.06875L10.0676 11.4824C10.0235 11.6475 9.99996 11.821 9.99996 11.9999C9.99996 13.1045 10.8954 13.9999 12 13.9999C13.1045 13.9999 14 13.1045 14 11.9999C14 10.8954 13.1045 9.99992 12 9.99992C11.8206 9.99992 11.6467 10.0235 11.4813 10.0678L2.06867 0.654592C1.80767 0.393568 1.9399 -0.0322454 2.30474 0.023884V0.023884L17.1448 2.30698C17.7308 2.39713 18.2534 2.72558 18.5888 3.21448L23.8978 10.9544C24.1702 11.3516 24.1209 11.8865 23.7804 12.2271L12.2465 23.7636C11.9066 24.1036 11.3728 24.1536 10.9757 23.8826L3.22388 18.5925C2.72912 18.2549 2.39656 17.7271 2.30548 17.1351L0.0238839 2.30474V2.30474Z" fill="currentColor"></path><path d="M15.956 27.2813L14.4356 26.2437C13.9181 25.8906 13.8491 25.1538 14.2921 24.7107L24.7344 14.266C25.1768 13.8235 25.9123 13.8914 26.2663 14.4073L27.272 15.8736C27.7462 16.5649 28 17.3835 28 18.2217C28 19.3158 27.5681 20.3656 26.7982 21.1429L21.2187 26.7762C20.443 27.5594 19.3865 28 18.2842 28C17.4535 28 16.6421 27.7495 15.956 27.2813Z" fill="currentColor"></path></svg>