<svg viewBox="0 0 40 40" xmlns="http://www.w3.org/2000/svg" fill="none" id="react" class="InteractiveSection_icon__1suOl"><path d="M22.6736 19.9996C22.6736 21.167 21.7272 22.1135 20.5597 22.1135C19.3922 22.1135 18.4458 21.167 18.4458 19.9996C18.4458 18.8321 19.3922 17.8856 20.5597 17.8856C21.7272 17.8856 22.6736 18.8321 22.6736 19.9996Z" fill="#8BDCFF"></path><path fill-rule="evenodd" clip-rule="evenodd" d="M27.1421 16.1881C30.0285 17.0716 31.9111 18.4962 31.9111 19.9996C31.9111 21.4983 30.0377 22.923 27.1698 23.8065C27.8405 26.7391 27.5491 29.0751 26.2493 29.8244C25.944 30.0002 25.5925 30.0834 25.2039 30.0834C23.9319 30.0834 22.2667 29.1861 20.5829 27.6226C18.8992 29.1953 17.234 30.1019 15.9619 30.1019C15.5734 30.1019 15.2218 30.0187 14.9212 29.8429C13.6167 29.0936 13.3207 26.753 13.9868 23.8111C11.1004 22.9276 9.21777 21.5029 9.21777 19.9996C9.21777 18.5009 11.0912 17.0808 13.9683 16.1927C13.2976 13.26 13.589 10.9241 14.8888 10.1747C15.1941 9.99897 15.5456 9.91571 15.9342 9.91571V9.91108C17.2062 9.91108 18.8715 10.8085 20.5552 12.3719C22.2389 10.7992 23.9041 9.89258 25.1762 9.89258V9.89721C25.5583 9.89787 25.9082 9.98117 26.2077 10.1562C27.5121 10.9056 27.8082 13.2462 27.1421 16.1881ZM25.1716 10.9241C24.2095 10.9266 22.7962 11.6942 21.2907 13.0935C21.9429 13.7735 22.5905 14.5506 23.2149 15.4063C24.2557 15.5173 25.2456 15.6885 26.1522 15.9105C26.254 15.4433 26.3372 14.9854 26.3881 14.5506C26.6009 12.7836 26.328 11.4098 25.6989 11.049C25.5555 10.9703 25.3843 10.9287 25.1716 10.9287V10.9241ZM19.8197 13.0981C18.3118 11.7058 16.8917 10.9426 15.9342 10.9426V10.9472C15.7214 10.9472 15.541 10.9842 15.4022 11.0675C14.7778 11.4329 14.5095 12.8067 14.7269 14.5737C14.7824 15.0039 14.861 15.4526 14.9674 15.9151C15.8741 15.6885 16.8639 15.5173 17.9093 15.4063C18.5245 14.5506 19.1721 13.7781 19.8197 13.0981ZM25.2641 18.7414C25.5046 18.1262 25.7174 17.511 25.8885 16.9143C25.2826 16.7663 24.6489 16.646 23.992 16.5489C24.2187 16.9004 24.4453 17.2612 24.6581 17.6313C24.8755 18.0013 25.0744 18.3714 25.2641 18.7414ZM22.6552 23.6076C23.0391 23.0571 23.4092 22.465 23.77 21.8406C24.1169 21.2346 24.4361 20.6148 24.7275 19.9949C24.4361 19.3751 24.1169 18.7599 23.7654 18.1539C23.4046 17.5341 23.0299 16.9467 22.646 16.3962C21.9614 16.3407 21.2629 16.3083 20.5644 16.3083C19.8613 16.3083 19.1629 16.3407 18.4737 16.4008C18.0897 16.9513 17.7197 17.5434 17.3589 18.1678C17.012 18.7738 16.6882 19.3936 16.4014 20.0134C16.6928 20.6333 17.012 21.2485 17.3635 21.8545C17.7243 22.4743 18.099 23.0617 18.4829 23.6122C19.1675 23.6677 19.866 23.7001 20.5644 23.7001C21.2675 23.7001 21.966 23.6677 22.6552 23.6076ZM25.9024 23.0802C25.7266 22.4789 25.5139 21.8591 25.2641 21.2392C25.0744 21.6093 24.8755 21.984 24.6627 22.354C24.45 22.7287 24.2233 23.0941 23.9967 23.4503C24.6581 23.3532 25.2965 23.2283 25.9024 23.0802ZM19.2878 24.6946C19.7133 25.2358 20.1435 25.7307 20.5737 26.1748C20.9992 25.7307 21.4294 25.2358 21.8457 24.6946C21.4248 24.7177 20.9946 24.727 20.5598 24.727C20.1296 24.727 19.7041 24.7131 19.2878 24.6946ZM15.2357 23.0849C15.8417 23.2329 16.4754 23.3532 17.1322 23.4503C16.9056 23.0987 16.6835 22.7379 16.4661 22.3679C16.2487 21.9978 16.0498 21.6278 15.8602 21.2577C15.6196 21.873 15.4069 22.4882 15.2357 23.0849ZM21.8365 15.3046C21.4109 14.7634 20.9807 14.2684 20.5506 13.8244C20.125 14.2684 19.6948 14.7634 19.2785 15.3046C19.6994 15.2814 20.1296 15.2722 20.5644 15.2722C20.9946 15.2722 21.4202 15.2861 21.8365 15.3046ZM16.4615 17.6451C16.6743 17.2705 16.9009 16.905 17.1276 16.5489C16.4661 16.646 15.8278 16.7709 15.2218 16.9143C15.3976 17.5156 15.6104 18.1354 15.8602 18.7553C16.0498 18.3852 16.2487 18.0152 16.4615 17.6451ZM10.2447 19.9996C10.2447 20.7258 11.3039 21.6417 12.9414 22.3401C13.3438 22.5113 13.7786 22.6686 14.2366 22.812C14.4956 21.91 14.8379 20.971 15.2635 20.0088C14.8333 19.0421 14.4864 18.0984 14.2227 17.1918C13.774 17.3352 13.3392 17.4879 12.9414 17.659C11.3039 18.3528 10.2447 19.2733 10.2447 19.9996ZM14.7408 25.4486C14.528 27.2156 14.8009 28.5894 15.43 28.9502C15.5688 29.0288 15.7445 29.0704 15.9527 29.0751C16.9148 29.0751 18.3303 28.3072 19.8382 26.9056C19.186 26.2257 18.5384 25.4486 17.914 24.5928C16.8732 24.4818 15.8833 24.3107 14.9767 24.0886C14.8749 24.5558 14.7917 25.0138 14.7408 25.4486ZM25.7266 28.9317C26.3511 28.5662 26.6194 27.1924 26.402 25.4254C26.3511 24.9953 26.2678 24.5466 26.1614 24.0794C25.2548 24.306 24.2649 24.4772 23.2195 24.5882C22.6043 25.4439 21.9568 26.2164 21.3092 26.8964C22.8171 28.2887 24.2372 29.0519 25.1947 29.0519C25.4075 29.0519 25.5879 29.0149 25.7266 28.9317ZM26.9015 22.8073C27.3502 22.6639 27.785 22.5113 28.1828 22.3401C29.8203 21.6463 30.8796 20.7258 30.8842 19.9996C30.8842 19.2733 29.8249 18.3575 28.1875 17.659C27.7804 17.4879 27.3456 17.3306 26.8877 17.1872C26.6286 18.0892 26.2863 19.0282 25.8608 19.9903C26.291 20.9571 26.6379 21.9007 26.9015 22.8073Z" fill="#8BDCFF"></path></svg>