<svg xmlns="http://www.w3.org/2000/svg" viewBox="0 0 28 28" fill="none" id="sphere" width="24" height="24"><path fill-rule="evenodd" clip-rule="evenodd" d="M12.1106 17.9251C12.2377 20.7276 12.4716 23.415 12.7981 25.9406C6.87926 25.352 2.226 20.4626 2.00799 14.442C4.75057 16.3489 8.24905 17.6118 12.1106 17.9251ZM25.8416 12.0452C23.0007 14.4204 18.8811 15.9923 14.0416 16.0012C14.0141 15.014 14 14.0129 14 13C14 9.12826 14.2057 5.42916 14.5792 2.01373C20.2797 2.28464 24.9385 6.53311 25.8416 12.0452ZM28 14C28 6.54326 22.1703 0.448111 14.8199 0.0236123C14.7691 0.0206786 14.7183 0.0180155 14.6673 0.0156249C14.5358 0.00945041 14.4037 0.00509215 14.2712 0.00257461C14.181 0.000860781 14.0906 0 14 0C13.5955 0 13.195 0.0171532 12.7993 0.0507719C5.62937 0.659801 0 6.6725 0 14C0 21.4249 5.77995 27.4997 13.0858 27.9706C13.0907 27.9709 13.0957 27.9713 13.1006 27.9716C13.1007 27.9716 13.1008 27.9716 13.1009 27.9716C13.3982 27.9904 13.698 28 14 28C14.3729 28 14.7424 27.9854 15.108 27.9568C22.322 27.392 28 21.3591 28 14Z" fill="currentColor"></path></svg>