<svg xmlns="http://www.w3.org/2000/svg" viewBox="0 0 28 30" fill="none" id="vertex" width="24" height="24"><path fill-rule="evenodd" clip-rule="evenodd" d="M16.3094 0.600729C19.2924 2.27269 22.5298 3.76737 25.403 5.64768C25.7102 5.84873 25.6925 6.30021 25.3745 6.48378L18.1421 10.6594C18.7524 11.2421 19.2401 11.9522 19.5623 12.747L27.1726 8.35318C27.4341 8.20218 27.7712 8.31575 27.8498 8.60735C27.9484 8.97313 28 9.35397 28 9.74195V20.258C28 21.86 27.1197 23.3403 25.6906 24.1412L16.3094 29.3993V29.3993C15.8 29.6848 15.2395 29.2611 15.2395 28.6772V20.8717C14.8394 20.9557 14.4247 20.9999 13.9996 20.9999C13.561 20.9999 13.1333 20.9529 12.7215 20.8635V28.707C12.7215 29.2685 12.1804 29.6738 11.6906 29.3993V29.3993L2.3094 24.1412C0.880339 23.3403 0 21.86 0 20.258V9.74195C0 9.30069 0.0667944 8.86867 0.193453 8.45753C0.280518 8.17491 0.610907 8.06961 0.867014 8.21747L8.49063 12.619C8.83157 11.8312 9.33656 11.1309 9.96252 10.5612L2.77878 6.41369C2.45455 6.2265 2.44388 5.76312 2.76218 5.56602C5.64511 3.78084 8.73825 2.25549 11.6906 0.600729C13.1197 -0.200243 14.8803 -0.200243 16.3094 0.600729ZM17 15C17 16.6569 15.6569 18 14 18C12.3431 18 11 16.6569 11 15C11 13.3431 12.3431 12 14 12C15.6569 12 17 13.3431 17 15Z" fill="currentColor"></path></svg>