<svg width="41" height="40" viewBox="0 0 41 40" fill="none" xmlns="http://www.w3.org/2000/svg" class="InteractiveSection_icon__1suOl"><path d="M25.3965 17.3804C25.3965 17.3804 24.0001 21.7662 23.8863 22.1282C23.845 21.7558 22.8209 13.8843 22.8209 13.8843C20.4419 13.8843 19.1696 15.5806 18.4973 17.3701C18.4973 17.3701 16.8009 21.7662 16.6561 22.1385C16.6458 21.7972 16.3975 17.4218 16.3975 17.4218C16.2527 15.229 14.246 13.8946 12.6221 13.8946L14.5874 25.8209C17.0802 25.8105 18.4249 24.1245 19.1282 22.3351C19.1282 22.3351 20.6281 18.4562 20.6901 18.2803C20.7005 18.4458 21.7659 25.8209 21.7659 25.8209C24.2691 25.8209 25.6137 24.2383 26.3378 22.5109L29.8443 13.8946C27.3722 13.8946 26.0689 15.5806 25.3965 17.3804Z" fill="#547AFF"></path></svg>