<svg width="40" height="40" xmlns="http://www.w3.org/2000/svg" viewBox="0 0 40 40" fill="none" id="wordpress" class="InteractiveSection_icon__1suOl"><path d="M28.4388 19.1571C28.4388 17.773 27.9416 16.8144 27.5152 16.0683C27.4713 15.997 27.4276 15.9265 27.3844 15.8567C26.8684 15.0242 26.4154 14.2931 26.4154 13.4419C26.4154 12.4123 27.1962 11.454 28.296 11.454C28.328 11.454 28.359 11.4565 28.3899 11.4591C28.407 11.4605 28.424 11.4619 28.4411 11.4629C26.4486 9.63741 23.794 8.52283 20.8782 8.52283C16.9656 8.52283 13.5234 10.5303 11.5208 13.571C11.7836 13.5789 12.0312 13.5845 12.2415 13.5845C13.413 13.5845 15.2263 13.4423 15.2263 13.4423C15.83 13.4067 15.9012 14.2935 15.2981 14.3649C15.2981 14.3649 14.6914 14.4363 14.0163 14.4716L18.0947 26.603L20.5456 19.2522L18.8007 14.4712C18.1976 14.4358 17.6263 14.3644 17.6263 14.3644C17.0228 14.3291 17.0935 13.4063 17.697 13.4419C17.697 13.4419 19.5466 13.584 20.647 13.584C21.8183 13.584 23.6318 13.4419 23.6318 13.4419C24.2359 13.4063 24.3069 14.293 23.7036 14.3644C23.7036 14.3644 23.0956 14.4358 22.4218 14.4712L26.4691 26.5108L27.5862 22.7777L27.6744 22.4958C28.1144 21.0918 28.4388 20.0567 28.4388 19.1571Z" fill="#BEBEBE"></path><path d="M9.67751 19.7221C9.67751 24.1553 12.2537 27.9864 15.9895 29.8019L10.6471 15.1641C10.0257 16.557 9.67751 18.0984 9.67751 19.7221Z" fill="#BEBEBE"></path><path d="M17.7124 30.4664L21.0726 20.7018L24.5156 30.1335C24.5379 30.1889 24.5652 30.2398 24.5953 30.2878C23.4311 30.6971 22.1803 30.9226 20.8761 30.9226C19.7767 30.9226 18.7157 30.7613 17.7124 30.4664Z" fill="#BEBEBE"></path><path d="M30.7031 14.3488C30.7512 14.7055 30.7785 15.0885 30.7785 15.5004C30.7785 16.6369 30.5663 17.9145 29.927 19.512L26.506 29.4032C29.8355 27.4615 32.0751 23.8542 32.0751 19.7224C32.0753 17.7752 31.5779 15.9441 30.7031 14.3488Z" fill="#BEBEBE"></path><path fill-rule="evenodd" clip-rule="evenodd" d="M7.82178 19.7222C7.82178 12.5235 13.6785 6.66699 20.877 6.66699C28.0753 6.66699 33.9327 12.5235 33.9329 19.7222C33.9329 26.9218 28.0753 32.7781 20.877 32.7781C13.6785 32.7781 7.82178 26.9218 7.82178 19.7222ZM8.42039 19.7222C8.42039 26.5913 14.0086 32.1797 20.877 32.1797C27.7452 32.1797 33.333 26.5913 33.333 19.7222C33.333 12.8536 27.7452 7.26562 20.877 7.26562C14.0084 7.26562 8.42039 12.8536 8.42039 19.7222Z" fill="#BEBEBE"></path></svg>